<?xml version="1.0" encoding="UTF-8"?>
<svg xmlns="http://www.w3.org/2000/svg" viewBox="0 0 981.7426 981.7444">
	<defs>
		<style>.cls-1{fill:#fff;}.cls-2{fill:#5468ff;}</style>
	</defs>
	<g id="Layer_1">
		<path class="cls-2" d="M129.2707,0H852.4719c71.1882,0,129.2707,57.7672,129.2707,129.2318V852.5126c0,71.1668-57.7846,129.2318-129.2707,129.2318H129.2707C58.0825,981.7444,0,923.9772,0,852.5126V128.934C0,57.7672,57.7846,0,129.2707,0Z"/></g>
	<g id="Layer_3">
		<path class="cls-1" d="M590.6589,710.7004h25.87v-115.2481l-25.87,4.083v111.1651Zm-19.4848,0v-21.6667c-16.5226-.0658-16.5226-19.6909-16.5226-22.7862v-120.9117l-25.7384,4.0831,.0659,121.702c0,5.466,0,39.7771,42.1951,39.5795Zm32.3869-127.4315c8.6233,0,15.6669-6.9807,15.6669-15.6079s-6.9777-15.6078-15.6669-15.6078-15.6668,6.9808-15.6668,15.6078,7.0435,15.6079,15.6668,15.6079Zm-211.8973,19.0983c-5.2003-1.4489-11.5855-2.766-19.0898-4.0173-7.5042-1.2512-15.2061-2.3049-23.566-2.3049-8.6234,0-16.5885,1.7122-23.3686,4.4123-6.7802,2.7001-12.573,6.3881-17.3125,11.1956-4.8054,4.8075-8.3601,10.6028-10.8615,17.3201-2.4356,6.7173-3.6863,16.7933-3.6863,24.8277,0,8.5613,1.1849,20.2179,3.4888,26.7376,2.304,6.5198,5.5953,11.9858,9.7424,16.3323,4.1471,4.3465,9.2158,7.6393,15.0744,9.8784,5.8586,2.2391,12.3097,3.3587,19.419,3.3587,5.3978,0,10.2032-.6586,14.3503-1.9098,4.1471-1.3172,7.5042-2.5684,10.0715-3.8197v4.2148c0,8.2979-2.1723,14.5542-6.5827,18.769-4.4104,4.2148-11.783,6.3222-22.1179,6.3222-6.5169,0-18.9582-.5269-28.3714-2.5026l-4.1471,20.4154c11.2564,2.5025,25.3434,3.8197,32.1236,3.8197,18.5632,0,32.321-4.0831,41.3393-12.2493,9.0183-8.1661,13.4946-21.0081,13.4946-38.5916h0v-102.2086Zm-25.6725,80.9371c-2.304,1.5805-5.2003,2.8976-8.8208,4.0172-3.6205,1.1195-7.5043,1.7122-11.5855,1.7122-7.5043,0-13.6262-2.5025-18.3658-7.5076-4.7395-5.005-7.1093-16.9908-7.1093-27.7912,0-10.0101,2.5014-20.7447,7.4384-26.8693,5.0029-6.1246,12.1122-9.9443,21.4597-9.6808,7.4384,.1975,15.1402,1.7781,16.9833,2.1732v63.9463Zm72.8705,23.0496c6.5168,2.8318,16.5884,4.2806,21.6571,4.3465,5.0686,0,15.206-1.5806,21.7887-4.3465,6.5827-2.766,12.178-6.7173,16.8517-11.7883,4.6737-5.0709,8.2942-11.1955,10.8615-18.3738,2.5672-7.1783,3.8181-13.7639,3.8181-22.4569s-1.3824-17.0567-4.1472-24.1692c-2.6331-7.1124-6.2536-13.1712-10.9272-18.2421-4.6079-5.0709-10.2691-8.9564-16.8518-11.7224-6.5827-2.7001-13.7578-4.0831-21.5254-4.0831s-14.9427,1.3171-21.4596,4.0831c-6.4511,2.766-12.1122,6.6515-16.8517,11.7224-4.7396,5.0709-8.4259,11.1297-11.059,18.2421-2.6331,7.1125-3.8179,15.4762-3.8179,24.1692s1.3165,15.2786,3.9496,22.4569c2.6331,7.1783,6.2536,13.3029,10.9273,18.3738,4.6737,5.071,10.269,8.9565,16.7859,11.7883Zm1.7114-79.4224c4.7395-6.5198,11.3881-9.7467,19.8798-9.7467s15.1402,3.2269,19.8798,9.7467c4.7395,6.4539,7.1751,15.7396,7.1751,26.8692,0,11.2614-2.3697,18.769-7.1093,25.3546-4.7396,6.5198-11.3881,9.8126-19.8798,9.8126s-15.1402-3.227-19.8798-9.8126c-4.7395-6.5197-7.1093-14.0932-7.1093-25.3546,0-11.1296,2.304-20.3495,7.0435-26.8692Zm207.7502,75.7344c3.9496,2.8319,8.6233,4.8734,14.1528,6.1247,5.4636,1.2512,11.5856,1.9098,18.2341,1.9098,10.0056,0,19.0239-.5927,27.0549-1.7781,8.0309-1.1854,14.0212-2.1733,17.9708-3.0294v-66.2512c0-6.5198-.7241-12.4468-2.2381-17.847-1.4482-5.4002-3.8838-10.537-7.3068-14.2908-3.423-3.7538-8.0967-6.7173-13.8895-8.8247-5.7928-2.1074-12.9679-3.1611-21.4597-3.1611-7.1093,0-13.7577,.5928-19.9455,1.7123-6.1877,1.1194-10.993,2.2392-14.2186,3.3586l3.0939,21.1397c3.0939-1.1194,7.1751-2.1073,12.1121-2.9635,4.9371-.856,10.3349-1.5805,16.2593-1.5805,4.4103,0,8.0967,.8562,10.9931,1.9757,2.8963,1.1196,5.2003,2.7001,6.9776,4.7417,1.7115,2.0414,2.9622,4.3464,3.6863,7.0465,.7241,2.6342,1.0533,5.4661,1.0533,8.4296v4.2148c-3.5547-.8562-6.8461-1.4489-10.0057-1.7782-3.1597-.3292-6.1219-.5268-8.9525-.5268-6.056,0-11.9147,.5927-17.51,1.7781-5.5953,1.1854-10.4665,3.1611-14.7453,5.9271-4.2129,2.7659-7.5701,6.3221-10.0715,10.6686-2.4356,4.3465-3.6863,8.3638-3.6863,14.6859,0,6.5856,1.119,12.9078,3.2913,17.386,2.2382,4.4782,5.2662,8.1004,9.15,10.9321Zm15.3377-35.3647c1.3823-2.0414,3.2913-3.6219,5.5953-4.7416,2.304-1.1196,4.937-1.9098,7.8334-2.305,2.8964-.461,5.7927-.6585,8.6233-.6585,3.2914,0,6.2536,.2634,8.9525,.6585,2.6989,.3952,4.7396,.8562,6.1878,1.2513v26.2107c-4.0813,.7903-9.9399,1.2513-17.8392,1.2513-6.5168,0-11.6513-1.1196-15.5351-3.4904-3.818-2.305-5.9245-5.7953-5.9245-11.8541,0-3.0952,.6583-4.2806,2.1065-6.3222Zm-453.6141-59.1387c-3.423-3.7538-8.0967-6.7173-13.8895-8.8247-5.7928-2.1074-12.9679-3.1611-21.4596-3.1611-7.1093,0-13.7579,.5268-19.9456,1.7123-6.1878,1.1195-10.9931,2.2391-14.2188,3.3587l3.0939,21.1397c3.0939-1.1195,7.1752-2.1073,12.1122-2.9635,4.937-.8561,10.3348-1.5805,16.2593-1.5805,4.4104,0,8.0967,.8561,10.9931,1.9757,2.8964,1.1195,5.2003,2.7,6.9776,4.7416,1.7115,2.0415,2.9623,4.3465,3.6864,7.0465,.7241,2.6343,1.0532,5.4662,1.0532,8.4297v4.2147c-3.5547-.8561-6.9118-1.4488-10.0057-1.7781-3.1597-.3293-6.1219-.5268-8.9525-.5268-6.0561,0-11.9147,.5927-17.51,1.7781-5.5953,1.1854-10.4665,3.1611-14.7452,5.927-4.213,2.766-7.5701,6.3222-10.0716,10.6687-2.4356,4.3465-3.6863,8.3637-3.6863,14.6859,0,6.5856,1.1191,12.9078,3.2914,17.386,2.2381,4.4782,5.2661,8.1004,9.1499,10.9321,3.9496,2.8318,8.6234,4.8734,14.1528,6.1246,5.4637,1.2513,11.5856,1.9098,18.2341,1.9098,10.0057,0,19.024-.5927,27.0549-1.7781,8.0309-1.1854,14.0212-2.1732,17.9708-3.0293v-66.2512c0-6.5198-.7241-12.4468-2.2382-17.847-1.4482-5.4002-3.818-10.4713-7.3068-14.2908Zm-15.2719,80.2785c-4.0813,.7903-9.9399,1.2513-17.8391,1.2513-6.5169,0-11.7172-1.1854-15.5352-3.4904-3.8181-2.3049-5.9244-5.7953-5.9244-11.8541,0-3.0952,.6583-4.2806,2.1064-6.3221,1.3824-2.0416,3.2914-3.6221,5.5953-4.7417,2.304-1.1195,4.9371-1.9098,7.8335-2.3049,2.8964-.461,5.7927-.6586,8.6233-.6586,3.2914,0,6.2536,.2634,8.9525,.6586,2.6989,.3951,4.7395,.8561,6.1877,1.2512v26.2107Zm69.9742-22.1935v-120.9117l-25.7384,4.0831,.0658,121.702c0,5.466,0,39.7771,42.1951,39.5795v-21.6667c-16.5225-.0658-16.5225-19.6909-16.5225-22.7862Zm294.4195,119.0986c-4.3991,2.2005-8.1004,4.7579-11.1019,7.6762-3.0035,2.9182-4.5042,5.0969-4.5042,6.5342,0,.678,.4223,1.015,1.2688,1.015,.676,0,2.4107-.9298,5.202-2.7913,2.7913-1.8596,6.1536-3.8064,10.0869-5.8364,3.9332-2.0301,8.5643-3.9749,13.8932-5.8364,4.9899-1.9449,8.4789-3.4892,10.4675-4.6311,1.9864-1.1419,3.848-3.4456,5.5826-6.9149,1.7327-3.4673,2.601-8.374,2.601-14.718,0-3.8896-3.3206-6.7662-9.9599-8.6277-6.6413-1.8595-16.0502-2.7913-28.2305-2.7913-20.3859,0-38.7198,2.6228-55.0019,7.8665-16.2841,5.2456-27.5545,11.3774-33.8132,18.3974-3.8916,4.2306-7.0854,10.0868-9.5793,17.5727-2.4959,7.4858-3.7429,14.9518-3.7429,22.394,0,2.0301,.7176,4.1454,2.1569,6.344,1.4373,2.2005,2.7914,3.6378,4.0601,4.3139,14.8012,8.5444,30.7463,14.0835,47.8333,16.6211,5.7511,.9317,11.2704,2.3472,16.5576,4.2504,5.2853,1.9032,10.0433,4.4209,14.2739,7.5493,4.2286,3.1303,7.4006,6.6414,9.5159,10.5309-6.0902,5.0751-12.8584,9.052-20.3006,11.9266-7.4442,2.8766-16.0303,4.865-25.7564,5.9633-9.728,1.1003-22.2037,1.6494-37.4292,1.6494-17.5092,0-26.2638-.8882-26.2638-2.6646,0-.676,.3172-1.2053,.9516-1.5859,.6343-.3807,1.4789-.7613,2.5375-1.1419,1.0567-.3807,2.4305-.908,4.1237-1.586,.337-.1685,.676-.337,1.015-.5075,.337-.1686,.6344-.3807,.8882-.6344,.2537-.2538,.3806-.5075,.3806-.7613,0-1.015-1.693-1.4155-5.0751-1.2054-3.3841,.2122-6.8951,1.0369-10.531,2.4742-4.1453,1.8615-7.7396,5.4776-10.7847,10.8481-3.045,5.3725-4.5676,9.3256-4.5676,11.8632,0,5.6659,4.5042,9.8965,13.5126,12.6878,9.0084,2.7913,20.9132,4.187,35.7163,4.187,8.035,0,16.4724-.5293,25.3123-1.586,8.8379-1.0586,17.0434-2.5177,24.6145-4.3773,7.5691-1.8615,13.8495-3.85,18.8414-5.9633,5.8364-2.6228,10.9949-5.9633,15.4792-10.0234,4.4824-4.0601,7.8863-8.5207,10.2137-13.3857,2.3255-4.863,3.4892-9.7062,3.4892-14.5276,0-7.02-2.9618-13.364-8.8815-19.0318-5.9217-5.666-15.0153-11.1217-27.2789-16.3673-8.5445-3.7211-18.2289-7.02-29.0552-9.8966-10.8282-2.8745-17.8264-4.9264-20.9984-6.1536-3.172-1.2251-4.758-3.3186-4.758-6.2805,0-4.7361,3.8262-9.389,11.4826-13.9566,7.6543-4.5676,18.1218-8.2471,31.4023-11.0385,13.2787-2.7914,27.7428-4.187,43.3925-4.187,5.1584,0,7.7396,.5511,7.7396,1.6494,0,.678-2.3274,2.2422-6.9783,4.6945Zm266.3816,93.8267c-7.4858,4.1038-13.8932,6.1536-19.2221,6.1536-5.1604,0-9.3474-1.5641-12.561-4.6945-3.2155-3.1283-4.8214-7.1884-4.8214-12.1803,0-2.7061,.908-5.2853,2.7279-7.7396,1.818-2.4523,4.2921-4.8848,7.4224-7.2955,3.1284-2.4106,8.9232-6.5759,17.3824-12.4976,1.015-.7612,1.8814-1.0784,2.601-.9516,.7177,.1269,1.0785,.6979,1.0785,1.7129,0,.5928-.0218,1.1855-.0635,1.7763-.0436,.5928-.1071,1.2272-.1903,1.9032,0,2.369,1.0983,3.5526,3.2989,3.5526,2.03,0,4.7777-1.8398,8.2471-5.5192,3.4673-3.6795,6.5977-8.0132,9.389-13.0051,2.7913-4.9899,4.187-8.838,4.187-11.546,0-3.2136-1.0587-5.878-3.172-7.9933-2.1153-2.1133-4.6945-3.172-7.7396-3.172-4.2306,0-10.0452,2.3057-17.4458,6.9149-7.4026,4.6113-15.4157,11.1455-24.0435,19.6028-7.2757,7.1052-12.1803,12.8999-14.7179,17.3823-1.783,3.1509-2.9256,6.621-3.4558,10.397-7.3821,5.7783-12.9073,9.877-16.5276,12.2509-3.9332,2.5811-7.127,3.8698-9.5793,3.8698-2.9618,0-4.4408-1.818-4.4408-5.4558,0-6.5125,7.4423-18.0583,22.3307-34.6379,3.6358-3.8063,5.4558-6.6393,5.4558-8.5009,0-3.8063-.6562-7.5691-1.9667-11.2921-1.3124-3.7213-2.6446-5.5827-3.9966-5.5827-2.9619,0-6.683,1.5661-11.1654,4.6945-8.0369,5.3289-15.2056,10.8699-21.5059,16.6211-6.3022,5.7532-11.7581,11.2724-16.3672,16.5577-4.6113,5.2872-8.374,9.5595-11.2922,12.8147-2.9182,3.2572-4.8848,4.8848-5.8999,4.8848-1.6078,0-2.4107-1.2251-2.4107-3.6795,0-4.3971,6.681-13.9982,20.0469-28.8014,2.03-2.1986,3.3622-3.6795,3.9966-4.4408,.6344-.7612,1.2054-1.6058,1.7129-2.5375,.5075-.9298,.7613-1.818,.7613-2.6645,0-1.9448-.8247-3.3821-2.4742-4.3138-1.6494-.9298-3.8281-1.3957-6.5342-1.3957-3.8916,0-7.9517,2.0935-12.1804,6.2805-4.2306,4.187-9.2621,10.7648-15.0985,19.7296-3.1304,4.8214-5.2238,8.5445-6.2805,11.1653-.4803,1.19-.8455,2.6-1.1074,4.2076-4.7521,3.7991-8.7664,7.1572-12.0245,10.0662-3.5526,3.1719-8.0786,7.3807-13.576,12.6245-5.4994,5.2456-10.7213,10.2772-15.6696,15.0984-4.9482,4.8214-7.5492,7.359-7.803,7.6129,5.7512-11.0801,11.3973-21.0401,16.9383-29.88,5.5391-8.8378,11.1019-17.3823,16.6845-25.6294,5.5827-8.2471,9.3891-14.0836,11.4191-17.5093,2.0301-3.4257,3.0451-6.2805,3.0451-8.5643,0-3.9749-.5928-6.9783-1.7763-9.0084-1.1855-2.03-2.8349-2.9182-4.9483-2.6644-1.1002,.0852-2.3472,.8049-3.7429,2.1569-1.3956,1.354-3.1521,3.3623-5.2654,6.0268-2.1153,2.6644-4.4844,5.5192-7.1052,8.5643-2.6229,3.045-5.9217,6.556-9.8966,10.5309-10.2355,10.1503-19.7296,18.2289-28.4842,24.2338-8.7546,6.0069-14.3175,9.0084-16.6846,9.0084-2.2838,0-3.4257-1.1419-3.4257-3.4257,0-1.0151,.337-2.1986,1.015-3.5526l2.4107-6.9784c8.9648-7.6127,15.9649-14.1469,20.9984-19.6027,5.0316-5.4558,8.7111-9.96,11.0385-13.5126,2.3254-3.5526,3.4891-6.1318,3.4891-7.7396,0-2.5376-1.0784-4.9899-3.2354-7.3589-2.1569-2.3671-4.3773-3.5526-6.6611-3.5526-1.4393,0-3.9767,1.3758-7.6127,4.1235-3.6378,2.7498-7.8248,6.6195-12.561,11.6094-4.7381,4.9919-9.6864,11.0821-14.8448,18.2705-3.6378,5.3289-6.1972,9.6646-7.6761,13.0051-1.4809,3.3424-2.2204,7.4224-2.2204,12.2438,0,5.6679,1.8179,12.2874,5.4558,19.8565,3.6358,7.571,7.1052,11.3556,10.404,11.3556,3.6359,0,10.8263-4.6945,21.5694-14.0835l22.5844-19.1587c-21.2324,33.9202-34.8916,57.7298-40.9818,71.4327-.9318,1.8595-1.3957,4.0165-1.3957,6.4708,0,2.7061,.6978,5.8146,2.0935,9.3256,1.3957,3.5089,2.9817,5.2654,4.758,5.2654,.7612,0,1.7545-.6978,2.9816-2.0935,1.2252-1.3956,2.7477-3.3841,4.5676-5.9633,1.818-2.5812,3.8698-5.3507,6.1536-8.3105,.8446-1.1003,3.7845-4.9483,8.8181-11.546,5.0315-6.5977,12.1804-15.3959,21.4425-26.3907,8.79-10.4343,18.5635-21.449,29.2961-33.028,.2377,6.4467,1.3609,12.1709,3.3751,17.168,2.2838,5.668,4.7778,8.5009,7.4859,8.5009,1.7763,0,3.5308-.8663,5.2654-2.601,1.7327-1.7327,4.4824-5.1168,8.2471-10.1503,3.7628-5.0316,7.2956-9.5991,10.5944-13.7029,3.2989-4.1017,7.3154-8.4374,12.0535-13.005,7.2737-7.2737,13.3222-12.1368,18.1436-14.5911-3.9768,6.683-7.4858,12.6681-10.5309,17.9533-3.0451,5.2873-5.3091,9.3474-6.788,12.1804-1.4809,2.8349-2.6446,5.5628-3.4892,8.1837-.8465,2.6228-1.2688,5.2872-1.2688,7.9933,0,9.1353,3.4674,13.7029,10.4041,13.7029,4.0601,0,9.3038-2.6208,15.7329-7.8665,6.0445-4.9314,14.561-12.7823,25.545-23.5507,.3776,5.0864,1.4139,9.9567,3.1295,14.6058,2.1986,5.9633,5.2436,10.7847,9.1352,14.4642,3.8897,3.6794,8.1619,5.5192,12.8148,5.5192,4.7361,0,9.5793-1.3541,14.5276-4.0601,4.9482-2.7061,10.2771-6.5125,15.9867-11.4191,5.7095-4.9047,13.0883-11.7997,22.1403-20.6812v-8.5009c-10.1503,7.8665-18.9683,13.8516-26.4542,17.9533Z"/>
	</g>
	<g id="Layer_2">
		<path class="cls-1" d="M595.3345,415.9801c-26.7311,26.7338-63.6625,43.2689-104.4581,43.2689s-77.7271-16.5351-104.4581-43.2689c-26.7311-26.7337-43.2646-63.6689-43.2646-104.4685v-.0385h52.9407l-41.208-52.5671-41.2082-52.5671-41.2082,52.5671-41.2081,52.5671h49.5208v.0385c0,58.0184,23.5164,110.5465,61.5374,148.5712,38.0209,38.0247,90.5438,61.5436,148.5564,61.5436s110.5356-23.5189,148.5565-61.5436c.7949-.795,1.581-1.5985,2.3631-2.4061l-38.9931-49.7414c-2.3904,2.7729-4.881,5.4572-7.4684,8.0448ZM292.8752,180.3202c1.6822,1.6817,4.1121,1.308,5.6074-.3738,6.1682-8.4085,12.8971-16.4434,20.3736-23.9177,7.6635-7.6611,15.5138-14.388,24.1119-20.5543,1.8691-1.1211,2.056-3.7371,.5607-5.4188l-10.6541-10.6509c-10.4671-10.464-27.2894-10.464-37.7565,0l-12.7101,12.7063c-10.4672,10.4641-10.4672,27.2812,0,37.7452l10.4671,10.464Zm219.5405,101.3649l81.1205-42.0429c1.8692-.9343,2.4299-3.1766,1.4953-5.045-16.8222-29.5235-48.0368-49.7041-84.1111-51.0121-1.8691,0-3.7382,1.4949-3.7382,3.5503v91.3732c0,2.616,2.8037,4.4846,5.2335,3.1766Zm188.5539,29.7274c-.0268-57.979-23.5376-110.4692-61.5367-148.4722-38.0209-38.0247-90.5439-61.5435-148.5565-61.5435s-110.5355,23.5188-148.5564,61.5435c-.7856,.7856-1.5626,1.58-2.3358,2.3779l38.9915,49.7395c2.3826-2.7623,4.8646-5.4364,7.4426-8.0146,26.7311-26.7338,63.6626-43.2689,104.4581-43.2689s77.727,16.5351,104.4581,43.2689c26.7094,26.712,43.2371,63.6091,43.264,104.3694h-52.9503l41.208,52.567,41.2082,52.5672,41.2082-52.5672,41.2081-52.567h-49.5111ZM436.4942,92.0643c17.3829-5.0452,35.7005-7.6612,54.2049-7.6612,17.7568,0,35.3267,2.4292,52.3358,7.1006,2.243,.5606,4.4859-1.1212,4.4859-3.5503v-21.1149c0-14.7617-11.9625-26.7205-26.7286-26.7205h-62.2422c-14.7662,0-26.7287,11.9588-26.7287,26.7205v21.6755c0,2.4291,2.243,4.1108,4.6729,3.5503Z"/>
	</g>
</svg>
