<?xml version="1.0" encoding="UTF-8"?><svg xmlns="http://www.w3.org/2000/svg" viewBox="0 0 982.5 982.2444"><defs><style>.cls-1{fill:#fff;}.cls-2{fill:#5468ff;fill-rule:evenodd;}</style></defs><g id="Layer_2"><path class="cls-2" d="M491.5,0c271.1717,0,491,219.8283,491,491s-219.8283,491-491,491S.5,762.1717,.5,491,220.3283,0,491.5,0Z"/></g><g id="Layer_3"><path class="cls-1" d="M654.5824,654.713c-41.892,41.9024-99.7695,67.8196-163.703,67.8196s-121.8112-25.9172-163.703-67.8196c-41.8921-41.9023-67.8029-99.7945-67.8029-163.7436v-.0604h82.9669l-64.5798-82.3935-64.5799-82.3936-64.5801,82.3936-64.5799,82.3935h77.6072v.0604c0,90.9379,36.8541,173.2702,96.4393,232.87,59.585,59.5998,141.8971,96.4633,232.8124,96.4633s173.2275-36.8635,232.8125-96.4633c1.2459-1.246,2.4777-2.5054,3.7034-3.7712l-61.1086-77.9646c-3.746,4.3463-7.6492,8.5536-11.7041,12.6094h-.0004ZM180.5789,285.3403c2.6362,2.6359,6.4443,2.0501,8.7877-.5859,9.6666-13.1795,20.2119-25.7733,31.9288-37.4885,12.0099-12.008,24.3127-22.5518,37.7873-32.2168,2.9292-1.7572,3.2221-5.8576,.8788-8.4934l-16.6968-16.6942c-16.4037-16.4012-42.767-16.4012-59.1707,0l-19.9188,19.9158c-16.4038,16.4014-16.4038,42.7605,0,59.1618l16.4037,16.4013h0Zm344.0561,158.879l127.1292-65.898c2.9294-1.4644,3.8081-4.9789,2.3435-7.9075-26.3632-46.275-75.2816-77.9061-131.816-79.9562-2.9292,0-5.8584,2.3431-5.8584,5.5647v143.2181c0,4.1003,4.3939,7.0292,8.2017,4.979h0Zm295.4951,46.5945c-.042-90.8761-36.8873-173.1491-96.4382-232.7149-59.585-59.5999-141.8972-96.4631-232.8125-96.4631s-173.2273,36.8632-232.8124,96.4631c-1.2311,1.2313-2.4488,2.4764-3.6605,3.7271l61.1061,77.9616c3.7339-4.3297,7.6235-8.521,11.6638-12.5621,41.892-41.9025,99.7697-67.8195,163.703-67.8195s121.811,25.917,163.703,67.8195c41.8582,41.8683,67.7597,99.7007,67.8017,163.5883h-82.9818l64.5797,82.3934,64.5801,82.3937,64.5801-82.3937,64.5798-82.3934h-77.5919ZM405.6535,147.0084c27.2419-7.9079,55.9486-12.0082,84.9481-12.0082,27.8278,0,55.3627,3.8075,82.0188,11.1294,3.5151,.8788,7.0301-1.7573,7.0301-5.5647v-33.0954c0-23.1375-18.7472-41.8816-41.8881-41.8816h-97.5438c-23.1411,0-41.8881,18.7441-41.8881,41.8816v33.9741c0,3.8074,3.5152,6.4432,7.3232,5.5648h-.0002Z"/></g></svg>
