<?xml version="1.0" encoding="UTF-8"?><svg id="Layer_1" xmlns="http://www.w3.org/2000/svg" viewBox="0 0 981.7426 981.7444"><defs><style>.cls-1{fill:#fff;}.cls-2{fill:#5468ff;}</style></defs><g id="Layer_1-2"><path class="cls-2" d="M129.2707,0H852.4719c71.1882,0,129.2707,57.7672,129.2707,129.2318V852.5126c0,71.1668-57.7846,129.2318-129.2707,129.2318H129.2707C58.0825,981.7444,0,923.9772,0,852.5126V128.934C0,57.7672,57.7846,0,129.2707,0Z"/></g><path class="cls-1" d="M590.6589,710.7004h25.87v-115.2481l-25.87,4.083v111.1651Zm-19.4848,0v-21.6667c-16.5226-.0658-16.5226-19.6909-16.5226-22.7862v-120.9117l-25.7384,4.0831,.0659,121.702c0,5.466,0,39.7771,42.1951,39.5795h0Zm32.3869-127.4316c8.6233,0,15.6669-6.9807,15.6669-15.6079s-6.9777-15.6078-15.6669-15.6078-15.6668,6.9808-15.6668,15.6078,7.0435,15.6079,15.6668,15.6079Zm-211.8973,19.0983c-5.2003-1.4489-11.5855-2.766-19.0898-4.0173-7.5042-1.2512-15.2061-2.3049-23.566-2.3049-8.6234,0-16.5885,1.7122-23.3686,4.4123-6.7802,2.7001-12.573,6.3881-17.3125,11.1956-4.8054,4.8075-8.3601,10.6028-10.8615,17.3201-2.4356,6.7173-3.6863,16.7933-3.6863,24.8277,0,8.5613,1.1849,20.2179,3.4888,26.7376,2.304,6.5198,5.5953,11.9858,9.7424,16.3323s9.2158,7.6393,15.0744,9.8784c5.8586,2.2391,12.3097,3.3587,19.419,3.3587,5.3978,0,10.2032-.6586,14.3503-1.9098,4.1471-1.3172,7.5042-2.5684,10.0715-3.8197v4.2148c0,8.2979-2.1723,14.5542-6.5827,18.769s-11.783,6.3222-22.1179,6.3222c-6.5169,0-18.9582-.5269-28.3714-2.5026l-4.1471,20.4154c11.2564,2.5025,25.3434,3.8197,32.1236,3.8197,18.5632,0,32.321-4.0831,41.3393-12.2493,9.0183-8.1661,13.4946-21.0081,13.4946-38.5916h0v-102.2086h0Zm-25.6725,80.9371c-2.304,1.5805-5.2003,2.8976-8.8208,4.0172-3.6205,1.1195-7.5043,1.7122-11.5855,1.7122-7.5043,0-13.6262-2.5025-18.3658-7.5076-4.7395-5.005-7.1093-16.9908-7.1093-27.7912,0-10.0101,2.5014-20.7447,7.4384-26.8693,5.0029-6.1246,12.1122-9.9443,21.4597-9.6808,7.4384,.1975,15.1402,1.7781,16.9833,2.1732v63.9463h0Zm72.8705,23.0496c6.5168,2.8318,16.5884,4.2806,21.6571,4.3465,5.0686,0,15.206-1.5806,21.7887-4.3465,6.5827-2.766,12.178-6.7173,16.8517-11.7883,4.6737-5.0709,8.2942-11.1955,10.8615-18.3738,2.5672-7.1783,3.8181-13.7639,3.8181-22.4569s-1.3824-17.0567-4.1472-24.1692c-2.6331-7.1124-6.2536-13.1712-10.9272-18.2421-4.6079-5.0709-10.2691-8.9564-16.8518-11.7224-6.5827-2.7001-13.7578-4.0831-21.5254-4.0831s-14.9427,1.3171-21.4596,4.0831c-6.4511,2.766-12.1122,6.6515-16.8517,11.7224-4.7396,5.0709-8.4259,11.1297-11.059,18.2421-2.6331,7.1125-3.8179,15.4762-3.8179,24.1692s1.3165,15.2786,3.9496,22.4569,6.2536,13.3029,10.9273,18.3738c4.6737,5.071,10.269,8.9565,16.7859,11.7883h-.0001Zm1.7114-79.4225c4.7395-6.5198,11.3881-9.7467,19.8798-9.7467s15.1402,3.2269,19.8798,9.7467c4.7395,6.4539,7.1751,15.7396,7.1751,26.8692,0,11.2614-2.3697,18.769-7.1093,25.3546-4.7396,6.5198-11.3881,9.8126-19.8798,9.8126s-15.1402-3.227-19.8798-9.8126c-4.7395-6.5197-7.1093-14.0932-7.1093-25.3546,0-11.1296,2.304-20.3495,7.0435-26.8692h0Zm207.7502,75.7344c3.9496,2.8319,8.6233,4.8734,14.1528,6.1247,5.4636,1.2512,11.5856,1.9098,18.2341,1.9098,10.0056,0,19.0239-.5927,27.0549-1.7781,8.0309-1.1854,14.0212-2.1733,17.9708-3.0294v-66.2512c0-6.5198-.7241-12.4468-2.2381-17.847-1.4482-5.4002-3.8838-10.537-7.3068-14.2908-3.423-3.7538-8.0967-6.7173-13.8895-8.8247-5.7928-2.1074-12.9679-3.1611-21.4597-3.1611-7.1093,0-13.7577,.5928-19.9455,1.7123-6.1877,1.1194-10.993,2.2392-14.2186,3.3586l3.0939,21.1397c3.0939-1.1194,7.1751-2.1073,12.1121-2.9635,4.9371-.856,10.3349-1.5805,16.2593-1.5805,4.4103,0,8.0967,.8562,10.9931,1.9757,2.8963,1.1196,5.2003,2.7001,6.9776,4.7417,1.7115,2.0414,2.9622,4.3464,3.6863,7.0465,.7241,2.6342,1.0533,5.4661,1.0533,8.4296v4.2148c-3.5547-.8562-6.8461-1.4489-10.0057-1.7782-3.1597-.3292-6.1219-.5268-8.9525-.5268-6.056,0-11.9147,.5927-17.51,1.7781-5.5953,1.1854-10.4665,3.1611-14.7453,5.9271-4.2129,2.7659-7.5701,6.3221-10.0715,10.6686-2.4356,4.3465-3.6863,8.3638-3.6863,14.6859,0,6.5856,1.119,12.9078,3.2913,17.386,2.2382,4.4782,5.2662,8.1004,9.15,10.9321h0Zm15.3377-35.3646c1.3823-2.0414,3.2913-3.6219,5.5953-4.7416,2.304-1.1196,4.937-1.9098,7.8334-2.305,2.8964-.461,5.7927-.6585,8.6233-.6585,3.2914,0,6.2536,.2634,8.9525,.6585,2.6989,.3952,4.7396,.8562,6.1878,1.2513v26.2107c-4.0813,.7903-9.9399,1.2513-17.8392,1.2513-6.5168,0-11.6513-1.1196-15.5351-3.4904-3.818-2.305-5.9245-5.7953-5.9245-11.8541,0-3.0952,.6583-4.2806,2.1065-6.3222h0Zm-453.6141-59.1386c-3.423-3.7538-8.0967-6.7173-13.8895-8.8247s-12.9679-3.1611-21.4596-3.1611c-7.1093,0-13.7579,.5268-19.9456,1.7123-6.1878,1.1195-10.9931,2.2391-14.2188,3.3587l3.0939,21.1397c3.0939-1.1195,7.1752-2.1073,12.1122-2.9635,4.937-.8561,10.3348-1.5805,16.2593-1.5805,4.4104,0,8.0967,.8561,10.9931,1.9757,2.8964,1.1195,5.2003,2.7,6.9776,4.7416,1.7115,2.0415,2.9623,4.3465,3.6864,7.0465,.7241,2.6343,1.0532,5.4662,1.0532,8.4297v4.2147c-3.5547-.8561-6.9118-1.4488-10.0057-1.7781-3.1597-.3293-6.1219-.5268-8.9525-.5268-6.0561,0-11.9147,.5927-17.51,1.7781-5.5953,1.1854-10.4665,3.1611-14.7452,5.927-4.213,2.766-7.5701,6.3222-10.0716,10.6687-2.4356,4.3465-3.6863,8.3637-3.6863,14.6859,0,6.5856,1.1191,12.9078,3.2914,17.386,2.2381,4.4782,5.2661,8.1004,9.1499,10.9321,3.9496,2.8318,8.6234,4.8734,14.1528,6.1246,5.4637,1.2513,11.5856,1.9098,18.2341,1.9098,10.0057,0,19.024-.5927,27.0549-1.7781,8.0309-1.1854,14.0212-2.1732,17.9708-3.0293v-66.2512c0-6.5198-.7241-12.4468-2.2382-17.847-1.4482-5.4002-3.818-10.4713-7.3068-14.2908h.0002Zm-15.2719,80.2784c-4.0813,.7903-9.9399,1.2513-17.8391,1.2513-6.5169,0-11.7172-1.1854-15.5352-3.4904-3.8181-2.3049-5.9244-5.7953-5.9244-11.8541,0-3.0952,.6583-4.2806,2.1064-6.3221,1.3824-2.0416,3.2914-3.6221,5.5953-4.7417,2.304-1.1195,4.9371-1.9098,7.8335-2.3049,2.8964-.461,5.7927-.6586,8.6233-.6586,3.2914,0,6.2536,.2634,8.9525,.6586,2.6989,.3951,4.7395,.8561,6.1877,1.2512v26.2107h0Zm69.9742-22.1935v-120.9117l-25.7384,4.0831,.0658,121.702c0,5.466,0,39.7771,42.1951,39.5795v-21.6667c-16.5225-.0658-16.5225-19.6909-16.5225-22.7862h0Z"/><g id="Layer_2"><path class="cls-1" d="M595.3345,415.9801c-26.7311,26.7338-63.6625,43.2689-104.4581,43.2689s-77.7271-16.5351-104.4581-43.2689c-26.7311-26.7337-43.2646-63.6689-43.2646-104.4685v-.0385h52.9407l-41.208-52.5671-41.2082-52.5671-41.2082,52.5671-41.2081,52.5671h49.5208v.0385c0,58.0184,23.5164,110.5465,61.5374,148.5712,38.0209,38.0247,90.5438,61.5436,148.5564,61.5436s110.5356-23.5189,148.5565-61.5436c.7949-.795,1.581-1.5985,2.3631-2.4061l-38.9931-49.7414c-2.3904,2.7729-4.881,5.4572-7.4684,8.0448h-.0002ZM292.8752,180.3202c1.6822,1.6817,4.1121,1.308,5.6074-.3738,6.1682-8.4085,12.8971-16.4434,20.3736-23.9177,7.6635-7.6611,15.5138-14.388,24.1119-20.5543,1.8691-1.1211,2.056-3.7371,.5607-5.4188l-10.6541-10.6509c-10.4671-10.464-27.2894-10.464-37.7565,0l-12.7101,12.7063c-10.4672,10.4641-10.4672,27.2812,0,37.7452l10.4671,10.464h0Zm219.5405,101.3649l81.1205-42.0429c1.8692-.9343,2.4299-3.1766,1.4953-5.045-16.8222-29.5235-48.0368-49.7041-84.1111-51.0121-1.8691,0-3.7382,1.4949-3.7382,3.5503v91.3732c0,2.616,2.8037,4.4846,5.2335,3.1766h0Zm188.5539,29.7273c-.0268-57.979-23.5376-110.4692-61.5367-148.4722-38.0209-38.0247-90.5439-61.5435-148.5565-61.5435s-110.5355,23.5188-148.5564,61.5435c-.7856,.7856-1.5626,1.58-2.3358,2.3779l38.9915,49.7395c2.3826-2.7623,4.8646-5.4364,7.4426-8.0146,26.7311-26.7338,63.6626-43.2689,104.4581-43.2689s77.727,16.5351,104.4581,43.2689c26.7094,26.712,43.2371,63.6091,43.264,104.3694h-52.9503l41.208,52.567,41.2082,52.5672,41.2082-52.5672,41.2081-52.567h-49.511ZM436.4942,92.0643c17.3829-5.0452,35.7005-7.6612,54.2049-7.6612,17.7568,0,35.3267,2.4292,52.3358,7.1006,2.243,.5606,4.4859-1.1212,4.4859-3.5503v-21.1149c0-14.7617-11.9625-26.7205-26.7286-26.7205h-62.2422c-14.7662,0-26.7287,11.9588-26.7287,26.7205v21.6755c0,2.4291,2.243,4.1108,4.6729,3.5503h0Z"/></g><path class="cls-1" d="M388.4161,860.2983c3.105,.1492,6.7476-.2633,10.9247-1.2358,4.1754-.9742,8.4613-2.2469,12.8535-3.8197,4.3922-1.5729,8.6421-3.2773,12.7516-5.1117,4.1076-1.8362,7.7503-3.5389,10.924-5.1118,2.4005-1.3481,5.3321-3.0526,8.7918-5.1117,3.4598-2.0591,7.0264-4.3253,10.7019-6.7969,3.6731-2.4716,7.1718-5.0363,10.4919-7.6956,3.3197-2.6577,6.0605-5.1486,8.2219-7.471,2.5522-3.7443,3.9776-7.5447,4.2767-11.4031,.2986-3.8566-.9493-6.7969-3.7441-8.8192-3.7703-1.7975-7.9896-3.0702-12.6572-3.8198-4.6682-.7478-9.5815-1.3481-14.7362-1.7975-1.8682-.2247-3.69-.5231-5.4643-.8987-1.7772-.3739-2.7123-1.3096-2.8071-2.8087,2.0298-5.1679,6.2001-10.2796,12.5158-15.3351,6.3133-5.0556,13.1113-9.3809,20.3963-12.9759,2.5028-1.3482,5.5072-2.677,9.016-3.9883,3.5059-1.3095,6.4472-1.292,8.8181,.0562,.5017,1.4991,1.1082,3.258,1.8231,5.2802,.7125,2.0222,2.5845,2.5103,5.6145,1.4605,3.3548-1.1235,5.3448-2.5453,5.9709-4.2691,.6257-1.7221,.5558-3.4073-.2095-5.0556-.888-1.9467-2.2507-3.8197-4.0912-5.6172-1.8427-1.7975-4.6917-2.6964-8.5493-2.6964-5.9893-.3739-12.06,.6566-18.2117,3.0896-6.1522,2.4347-12.0353,4.9993-17.6501,7.6956-6.5532,3.5213-13.3001,7.5658-20.2408,12.1333-6.9436,4.5693-12.7781,9.3633-17.5078,14.3803-2.3292,3.2966-3.6354,6.3861-3.9184,9.2685-.2859,2.8841,1.0301,5.2995,3.9479,7.2462,2.2677,1.7238,5.0656,2.9035,8.3939,3.5389,3.3278,.6372,6.7781,1.1059,10.3513,1.4043,3.5728,.3002,7.1539,.6566,10.7486,1.0673,3.5918,.4125,6.7472,1.2183,9.4642,2.4154,1.2146,.7496,1.1184,2.3031-.2916,4.6624-1.4101,2.3593-3.3233,4.887-5.7398,7.5833s-4.9544,5.2802-7.6137,7.7518c-2.6593,2.4716-4.5694,4.1568-5.7303,5.0556-1.9554,1.5728-4.6946,3.409-8.2145,5.5049-3.5227,2.0977-7.2556,4.1375-11.2019,6.1229-3.9483,1.9836-7.8436,3.688-11.6856,5.1117-3.8438,1.4218-7.1357,2.1345-9.8772,2.1345-3.2507,0-5.0528-1.1059-5.4095-3.3142-.3587-2.21,.4512-4.3253,2.4301-6.3475,1.8125-1.7975,2.5975-3.6319,2.3509-5.5049-.2472-1.8713-2.1382-2.4716-5.6742-1.7975-3.2535,1.4991-5.7085,3.3142-7.3615,5.4487-1.6528,2.1346-2.9886,4.1375-4.0128,6.0105-1.3338,3.7443-1.077,6.9654,.771,9.6617,1.848,2.6963,5.1994,4.2691,10.0495,4.7185Zm206.0993-74.0918c1.1021-1.9836,2.5138-4.5307,4.2322-7.6395,1.7155-3.1071,3.6342-6.5722,5.7503-10.392,2.1161-3.8197,4.2868-7.7518,6.517-11.7962,.7162-1.4974,1.3254-2.8824,1.828-4.1568,.5021-1.2727,.8173-2.6963,.945-4.2692-6.3543-.8987-13.4123-.337-21.1764,1.6852-1.3503,2.6963-2.4563,4.9625-3.3152,6.7969-.8616,1.8362-1.7859,3.7267-2.7779,5.6735-.9925,1.9485-1.8157,3.5582-2.4701,4.8308-2.2684,3.8198-4.016,6.8531-5.2429,9.1-1.2268,2.2469-3.0176,4.6062-5.3723,7.0778-2.3547,2.4716-5.8538,5.5049-10.4973,9.1-4.6435,3.595-11.5481,8.5768-20.7082,14.9419-1.9554,1.5729-4.627,3.258-8.0148,5.0556-3.3879,1.7975-6.9494,3.5775-10.6812,5.3364-3.7347,1.7606-7.3546,3.3896-10.8623,4.887-3.5104,1.4991-6.4025,2.6964-8.6794,3.5952-.3004-1.1235-.0626-2.7332,.7186-4.8309,.7785-2.0959,1.803-4.3429,3.0714-6.7407,1.2679-2.3961,2.6416-4.7184,4.123-6.9655,1.4791-2.2469,2.7609-4.0444,3.843-5.3925,.9383-1.1972,2.515-3.3318,4.7301-6.4037,2.2147-3.0702,4.9942-6.6284,8.3405-10.6728,3.3439-4.0446,7.2036-8.2943,11.5771-12.7513,4.3706-4.4552,9.1839-8.6681,14.4399-12.6388,.0457-1.6466-.2947-2.9017-1.0216-3.7636-.7297-.8601-2.0757-1.5904-4.043-2.1907-3.0249-.4494-6.3442-.9357-9.9551-1.4605-3.6138-.5231-6.9657-.3371-10.0541,.5617-1.0788,.6003-2.0209,1.1621-2.8239,1.6852-.8058,.5248-1.5235,1.3867-2.1572,2.5839-4.6108,5.6928-8.4629,10.8414-11.5567,15.4475-3.0937,4.6062-5.7913,9.1562-8.0927,13.65-2.3014,4.4938-4.4419,9.1386-6.4184,13.9308-1.9793,4.7939-4.197,10.1866-6.6553,16.1778-.8619,2.7718-1.5691,5.4312-2.1164,7.9765-.5479,2.5471,.2914,4.7572,2.5186,6.6284,1.6178,1.4991,4.0871,2.117,7.4102,1.8537,3.3202-.2615,6.608-1.141,9.8638-2.6401,5.796-2.2469,12.1562-4.9801,19.0837-8.2012,6.9247-3.2194,12.8022-6.4037,17.6268-9.5494,2.4622-1.5728,5.0838-3.258,7.8625-5.0555,2.7786-1.7976,5.3741-3.4828,7.7863-5.0556,2.4123-1.5728,4.5183-2.9578,6.3209-4.1568,1.7997-1.1972,2.9767-2.0591,3.5279-2.5839-.1032,.3756-.6043,1.3674-1.5037,2.9771-.8999,1.6115-1.9032,3.409-3.0053,5.3926-1.105,1.9854-2.1369,3.8952-3.098,5.7296-.9616,1.8362-1.5977,3.1282-1.9031,3.876-1.2268,2.2469-3.5565,5.9174-6.9862,11.0098-3.4326,5.0942-6.9747,10.2235-10.6275,15.3914-3.6551,5.1678-8.3001,11.7207-13.9332,19.6604-16.884-3.2211-34.3131-4.3639-52.2878-3.4265-17.9742,.9356-34.9374,3.8197-50.8863,8.6506-15.949,4.8308-30.0754,11.5329-42.3849,20.1098-12.3067,8.5751-21.1745,18.8548-26.601,30.8389-2.3962,5.3925-2.8958,10.4481-1.5037,15.1666,1.3944,4.7185,3.8868,8.949,7.4762,12.695,3.5922,3.7443,7.9558,6.89,13.0931,9.4371,5.1402,2.5453,10.3152,4.306,15.5303,5.2802,8.2405,1.4219,17.21,1.8537,26.9071,1.292,9.6995-.5618,19.2368-2.9403,28.6139-7.134,6.9775-3.2211,14.7102-7.5271,23.1984-12.9197,8.4882-5.3926,17.0456-11.5909,25.6717-18.5932,8.6266-7.004,16.9912-14.7172,25.0948-23.1431,8.1036-8.426,15.2491-17.2451,21.4366-26.4574,.9515,.5986,2.1806,1.5728,3.69,2.921,1.507,1.3481,2.8976,3.0333,4.1694,5.0555,1.2718,2.0222,2.0939,4.3815,2.4712,7.0778,.375,2.6963-.0413,5.691-1.252,8.9876,4.5859-4.4938,7.1896-8.5207,7.8126-12.0771,.6211-3.5582,.2781-6.6477-1.0314-9.2685-1.3114-2.6226-3.1042-4.7747-5.3825-6.4599-2.2782-1.6852-4.0756-2.9034-5.3931-3.6512,1.7964-2.8473,4.786-7.715,8.9644-14.6049,4.1789-6.8917,8.5566-14.2293,13.1348-22.0197,4.5778-7.7887,8.9058-15.2229,12.9836-22.3006,4.0778-7.0778,6.8536-12.1895,8.3275-15.3352,.082-.2984,.6746-1.4412,1.7795-3.4265Zm-80.0334,93.0782c-4.5071,4.9432-9.4669,10.148-14.8775,15.616-5.4125,5.4664-10.9462,10.9151-16.6013,16.3463-5.657,5.4295-10.9793,10.2041-15.9693,14.3241-2.8927,2.0222-6.1233,4.2691-9.6964,6.7407-3.5732,2.4716-7.3642,4.9046-11.3739,7.3025-4.0093,2.3961-8.1746,4.6237-12.4987,6.6845-4.3212,2.0591-8.5367,3.725-12.6446,4.9994-7.9691,2.3961-15.9815,2.7332-24.0371,1.0111-8.0551-1.7238-14.7139-4.8309-19.9777-9.3247-5.2614-4.4938-8.4541-10.0549-9.5782-16.6833-1.1216-6.6284,1.2051-13.6131,6.9778-20.9524,6.4879-8.0889,15.6178-15.1667,27.3873-21.2333,11.772-6.0667,24.6832-10.8414,38.7386-14.3241,14.0553-3.4827,28.5284-5.5242,43.4139-6.1228,14.8861-.6004,28.7414,.5231,41.566,3.3704-2.7125,3.2194-6.3241,7.3024-10.8289,12.2456Zm186.4323-105.3239c1.237-2.2838,2.1026-4.7922,2.6021-7.5271,.4967-2.7332,.2271-5.354-.8082-7.8642-1.0381-2.5085-3.7262-4.1744-8.0685-4.9995-4.7709-.3739-9.6085,.4125-14.5081,2.3593-4.9024,1.9485-9.4693,4.1568-13.7016,6.6284-2.3005,1.3481-4.9114,3.0895-7.8327,5.224-2.9236,2.1346-5.7377,4.2516-8.4461,6.3475-2.7088,2.0977-5.0407,3.9321-6.9961,5.505-1.9553,1.5728-3.0662,2.4716-3.3303,2.6963,.0618-.2247,.7099-1.1972,1.9452-2.921,1.2349-1.7221,2.7231-3.725,4.4698-6.0105,1.7438-2.2838,3.5898-4.6623,5.5401-7.1339,1.9477-2.4716,3.7267-4.6062,5.3393-6.4037,.4899-.6741,.3961-1.4412-.2808-2.3031-.6773-.8602-2.0796-1.8537-4.2076-2.9772-1.9875-.8987-3.3406-1.4219-4.0606-1.5728-.7205-.1492-2.3713,.0386-4.9519,.5617-3.0121,1.3482-5.5408,3.258-7.5909,5.7296-2.0501,2.4716-3.7791,4.6062-5.1871,6.4037-3.8163,5.0187-6.8655,9.5494-9.1433,13.5938-2.2802,4.0445-4.7674,8.2013-7.4639,12.4704-4.6594,7.3411-8.8565,13.7448-12.5912,19.2111-3.7376,5.468-7.2312,11.3469-10.4836,17.6382-.6549,1.2744-1.1578,2.3593-1.5048,3.258-.347,.8988-.2906,1.6115,.1748,2.1346,1.6833,.5248,3.3368,.7864,4.9621,.7864,1.623,0,3.6249-.2616,6.0037-.7864,.7709-.2247,1.7534-1.0287,2.9485-2.4153,1.1922-1.3851,2.4413-2.9772,3.7493-4.7747,1.3056-1.7976,2.5922-3.6126,3.8584-5.4488,1.2658-1.8344,2.4887-3.4265,3.6732-4.7747,5.0974-5.9911,9.1674-10.729,12.2069-14.2117,3.0372-3.4827,5.7856-6.3651,8.2416-8.6506,2.4554-2.2837,4.9441-4.3253,7.4705-6.1228,2.524-1.7975,5.933-4.0444,10.2295-6.7407,.9968-.6741,2.4017-1.5342,4.2133-2.584,1.811-1.048,3.7744-2.0959,5.8906-3.1457,2.1157-1.0479,4.1695-1.966,6.1634-2.7524,1.9914-.7864,3.6487-1.1796,4.9694-1.1796,.8115,0,1.6683,.1123,2.5727,.337,.902,.2247,1.3314,.9742,1.2861,2.2469-.4601,3.1457-1.6606,6.8724-3.6057,11.1784-1.9456,4.3077-4.09,8.6892-6.4307,13.1444-2.3436,4.457-4.5101,8.6506-6.5048,12.5827-1.9946,3.9321-3.2216,7.097-3.6756,9.4932-1.1159,5.1679-1.3837,9.8302-.7987,13.987,.5827,4.1568,2.7775,7.808,6.5842,10.9537,1.3377,.6741,2.8096,.86,4.4147,.5616,1.6055-.3002,3.0545-.8619,4.3469-1.6852,1.2929-.825,2.2408-1.7799,2.8436-2.8648,.6028-1.0848,.529-2.1152-.2169-3.0895-1.9004-2.6963-3.0522-5.2416-3.4591-7.6395-.4075-2.3961-.0568-5.4294,1.0545-9.1,.2263-.8232,1.1095-2.5646,2.6544-5.224,1.542-2.6577,3.5352-5.935,5.9766-9.8302,2.441-3.8935,5.1737-8.2943,8.1976-13.2006,3.0235-4.9046,6.1176-9.9795,9.2866-15.2229,.082-.2984,.7418-1.5904,1.9792-3.8759Zm114.5499-21.1209c-3.1469-2.9579-7.8067-4.6624-13.9775-5.1118-5.3801-.3739-11.2168,.1686-17.5057,1.6291-6.2913,1.4605-12.0814,3.3141-17.3681,5.5611-11.3697,4.794-21.8513,10.5991-31.4395,17.4135-9.5911,6.8162-17.7412,13.9309-24.4484,21.3457-2.6306,2.9209-5.0759,6.0859-7.3309,9.4931-2.2578,3.409-4.0767,6.797-5.46,10.1673-1.3834,3.3704-2.3419,6.667-2.8699,9.8864-.5308,3.2212-.2206,6.0667,.9276,8.5383,1.244,3.595,3.7774,6.2913,7.6001,8.0889,3.8203,1.7975,8.5731,2.6962,14.2606,2.6962,9.6663-.4493,19.3877-2.6576,29.1604-6.6283,9.7722-3.969,18.8503-8.6506,27.2386-14.0432,3.3383-2.1715,6.8191-4.7747,10.4467-7.808,3.6253-3.0334,6.3879-5.7858,8.2858-8.2574-1.2548-1.3482-2.3738-2.3593-3.3546-3.0334-.9831-.674-2.3894-.4493-4.2213,.6741-2.8107,1.7238-5.2331,3.3335-7.2677,4.8309-2.0374,1.4991-4.643,3.2211-7.8172,5.1679-5.3956,3.3703-10.6753,6.423-15.8433,9.1561-5.1686,2.7349-10.3761,4.9625-15.6209,6.6846-2.4198,.674-4.6041,1.2358-6.5553,1.6852-1.9511,.4493-3.8417,.488-5.6661,.1123-2.8801-1.3481-4.7802-3.4827-5.7026-6.4037-.9247-2.921-.9248-5.691,.0007-8.3136,3.8493-8.4627,9.7518-16.5516,17.7123-24.2666,7.9577-7.7132,17.1584-14.8665,27.6015-21.458,1.8318-1.1234,4.1039-2.3768,6.822-3.7635,2.7153-1.3851,5.6042-2.6577,8.6651-3.8198,3.0604-1.1603,6.1245-2.1521,9.195-2.9771,3.0677-.8233,5.8226-1.2358,8.2595-1.2358,3.4506,0,5.4173,.9742,5.8983,2.9209,.4781,1.9485,1.2756,3.6706,2.3871,5.1679,.8441,2.0977,2.6631,2.8648,5.459,2.3031,2.7935-.5617,4.8667-2.1907,6.217-4.887,.6878-4.7185-.5419-8.5558-3.6882-11.5154Z"/></svg>
